<?xml version="1.0" encoding="UTF-8" standalone="no"?>
<!-- Created with Inkscape (http://www.inkscape.org/) -->
<svg
   xmlns:svg="http://www.w3.org/2000/svg"
   xmlns="http://www.w3.org/2000/svg"
   version="1.0"
   width="19in"
   height="19.25in"
   id="svg2">
  <defs
     id="defs4" />
  <g
     id="layer1">
    <g
       transform="translate(1653.75,679.8756)"
       id="g6304">
      <rect
         width="56.25"
         height="1732.5"
         rx="0.99999994"
         ry="1.9999999"
         x="0"
         y="-680.13782"
         style="fill:#8f8f8f;fill-opacity:1;stroke:#000000;stroke-width:0;stroke-miterlimit:4;stroke-dasharray:none;stroke-opacity:1"
         id="rect6306" />
      <path
         d="M -765.71431 -387.63782 A 91.428574 85.714287 0 1 1  -948.57146,-387.63782 A 91.428574 85.714287 0 1 1  -765.71431 -387.63782 z"
         transform="matrix(0.116265,0,0,0.124016,127.7825,1077.935)"
         style="fill:#ffffff;fill-opacity:1;stroke:#000000;stroke-width:0;stroke-miterlimit:4;stroke-dasharray:none;stroke-opacity:1"
         id="path6308" />
      <path
         d="M -765.71431 -387.63782 A 91.428574 85.714287 0 1 1  -948.57146,-387.63782 A 91.428574 85.714287 0 1 1  -765.71431 -387.63782 z"
         transform="matrix(0.116265,0,0,0.124016,127.7825,1021.676)"
         style="fill:#ffffff;fill-opacity:1;stroke:#000000;stroke-width:0;stroke-miterlimit:4;stroke-dasharray:none;stroke-opacity:1"
         id="path6310" />
      <path
         d="M -765.71431 -387.63782 A 91.428574 85.714287 0 1 1  -948.57146,-387.63782 A 91.428574 85.714287 0 1 1  -765.71431 -387.63782 z"
         transform="matrix(0.116265,0,0,0.124016,127.7457,965.4255)"
         style="fill:#ffffff;fill-opacity:1;stroke:#000000;stroke-width:0;stroke-miterlimit:4;stroke-dasharray:none;stroke-opacity:1"
         id="path6312" />
      <path
         d="M -765.71431 -387.63782 A 91.428574 85.714287 0 1 1  -948.57146,-387.63782 A 91.428574 85.714287 0 1 1  -765.71431 -387.63782 z"
         transform="matrix(0.116265,0,0,0.124016,127.7825,920.4255)"
         style="fill:#ffffff;fill-opacity:1;stroke:#000000;stroke-width:0;stroke-miterlimit:4;stroke-dasharray:none;stroke-opacity:1"
         id="path6314" />
      <path
         d="M -765.71431 -387.63782 A 91.428574 85.714287 0 1 1  -948.57146,-387.63782 A 91.428574 85.714287 0 1 1  -765.71431 -387.63782 z"
         transform="matrix(0.116265,0,0,0.124016,127.7825,864.1661)"
         style="fill:#ffffff;fill-opacity:1;stroke:#000000;stroke-width:0;stroke-miterlimit:4;stroke-dasharray:none;stroke-opacity:1"
         id="path6316" />
      <path
         d="M -765.71431 -387.63782 A 91.428574 85.714287 0 1 1  -948.57146,-387.63782 A 91.428574 85.714287 0 1 1  -765.71431 -387.63782 z"
         transform="matrix(0.116265,0,0,0.124016,127.7457,807.9156)"
         style="fill:#ffffff;fill-opacity:1;stroke:#000000;stroke-width:0;stroke-miterlimit:4;stroke-dasharray:none;stroke-opacity:1"
         id="path6318" />
      <path
         d="M -765.71431 -387.63782 A 91.428574 85.714287 0 1 1  -948.57146,-387.63782 A 91.428574 85.714287 0 1 1  -765.71431 -387.63782 z"
         transform="matrix(0.116265,0,0,0.124016,127.7825,762.9255)"
         style="fill:#ffffff;fill-opacity:1;stroke:#000000;stroke-width:0;stroke-miterlimit:4;stroke-dasharray:none;stroke-opacity:1"
         id="path6320" />
      <path
         d="M -765.71431 -387.63782 A 91.428574 85.714287 0 1 1  -948.57146,-387.63782 A 91.428574 85.714287 0 1 1  -765.71431 -387.63782 z"
         transform="matrix(0.116265,0,0,0.124016,127.7825,706.6665)"
         style="fill:#ffffff;fill-opacity:1;stroke:#000000;stroke-width:0;stroke-miterlimit:4;stroke-dasharray:none;stroke-opacity:1"
         id="path6322" />
      <path
         d="M -765.71431 -387.63782 A 91.428574 85.714287 0 1 1  -948.57146,-387.63782 A 91.428574 85.714287 0 1 1  -765.71431 -387.63782 z"
         transform="matrix(0.116265,0,0,0.124016,127.7457,650.416)"
         style="fill:#ffffff;fill-opacity:1;stroke:#000000;stroke-width:0;stroke-miterlimit:4;stroke-dasharray:none;stroke-opacity:1"
         id="path6324" />
      <path
         d="M -765.71431 -387.63782 A 91.428574 85.714287 0 1 1  -948.57146,-387.63782 A 91.428574 85.714287 0 1 1  -765.71431 -387.63782 z"
         transform="matrix(0.116265,0,0,0.124016,127.7825,605.416)"
         style="fill:#ffffff;fill-opacity:1;stroke:#000000;stroke-width:0;stroke-miterlimit:4;stroke-dasharray:none;stroke-opacity:1"
         id="path6326" />
      <path
         d="M -765.71431 -387.63782 A 91.428574 85.714287 0 1 1  -948.57146,-387.63782 A 91.428574 85.714287 0 1 1  -765.71431 -387.63782 z"
         transform="matrix(0.116265,0,0,0.124016,127.7825,549.1566)"
         style="fill:#ffffff;fill-opacity:1;stroke:#000000;stroke-width:0;stroke-miterlimit:4;stroke-dasharray:none;stroke-opacity:1"
         id="path6328" />
      <path
         d="M -765.71431 -387.63782 A 91.428574 85.714287 0 1 1  -948.57146,-387.63782 A 91.428574 85.714287 0 1 1  -765.71431 -387.63782 z"
         transform="matrix(0.116265,0,0,0.124016,127.7457,492.9061)"
         style="fill:#ffffff;fill-opacity:1;stroke:#000000;stroke-width:0;stroke-miterlimit:4;stroke-dasharray:none;stroke-opacity:1"
         id="path6330" />
      <path
         d="M -765.71431 -387.63782 A 91.428574 85.714287 0 1 1  -948.57146,-387.63782 A 91.428574 85.714287 0 1 1  -765.71431 -387.63782 z"
         transform="matrix(0.116265,0,0,0.124016,127.7825,447.9255)"
         style="fill:#ffffff;fill-opacity:1;stroke:#000000;stroke-width:0;stroke-miterlimit:4;stroke-dasharray:none;stroke-opacity:1"
         id="path6332" />
      <path
         d="M -765.71431 -387.63782 A 91.428574 85.714287 0 1 1  -948.57146,-387.63782 A 91.428574 85.714287 0 1 1  -765.71431 -387.63782 z"
         transform="matrix(0.116265,0,0,0.124016,127.7825,391.6665)"
         style="fill:#ffffff;fill-opacity:1;stroke:#000000;stroke-width:0;stroke-miterlimit:4;stroke-dasharray:none;stroke-opacity:1"
         id="path6334" />
      <path
         d="M -765.71431 -387.63782 A 91.428574 85.714287 0 1 1  -948.57146,-387.63782 A 91.428574 85.714287 0 1 1  -765.71431 -387.63782 z"
         transform="matrix(0.116265,0,0,0.124016,127.7457,335.416)"
         style="fill:#ffffff;fill-opacity:1;stroke:#000000;stroke-width:0;stroke-miterlimit:4;stroke-dasharray:none;stroke-opacity:1"
         id="path6336" />
      <path
         d="M -765.71431 -387.63782 A 91.428574 85.714287 0 1 1  -948.57146,-387.63782 A 91.428574 85.714287 0 1 1  -765.71431 -387.63782 z"
         transform="matrix(0.116265,0,0,0.124016,127.7825,290.416)"
         style="fill:#ffffff;fill-opacity:1;stroke:#000000;stroke-width:0;stroke-miterlimit:4;stroke-dasharray:none;stroke-opacity:1"
         id="path6338" />
      <path
         d="M -765.71431 -387.63782 A 91.428574 85.714287 0 1 1  -948.57146,-387.63782 A 91.428574 85.714287 0 1 1  -765.71431 -387.63782 z"
         transform="matrix(0.116265,0,0,0.124016,127.7825,234.1566)"
         style="fill:#ffffff;fill-opacity:1;stroke:#000000;stroke-width:0;stroke-miterlimit:4;stroke-dasharray:none;stroke-opacity:1"
         id="path6340" />
      <path
         d="M -765.71431 -387.63782 A 91.428574 85.714287 0 1 1  -948.57146,-387.63782 A 91.428574 85.714287 0 1 1  -765.71431 -387.63782 z"
         transform="matrix(0.116265,0,0,0.124016,127.7457,177.9061)"
         style="fill:#ffffff;fill-opacity:1;stroke:#000000;stroke-width:0;stroke-miterlimit:4;stroke-dasharray:none;stroke-opacity:1"
         id="path6342" />
      <path
         d="M -765.71431 -387.63782 A 91.428574 85.714287 0 1 1  -948.57146,-387.63782 A 91.428574 85.714287 0 1 1  -765.71431 -387.63782 z"
         transform="matrix(0.116265,0,0,0.124016,127.7825,132.916)"
         style="fill:#ffffff;fill-opacity:1;stroke:#000000;stroke-width:0;stroke-miterlimit:4;stroke-dasharray:none;stroke-opacity:1"
         id="path6344" />
      <path
         d="M -765.71431 -387.63782 A 91.428574 85.714287 0 1 1  -948.57146,-387.63782 A 91.428574 85.714287 0 1 1  -765.71431 -387.63782 z"
         transform="matrix(0.116265,0,0,0.124016,127.7825,76.65703)"
         style="fill:#ffffff;fill-opacity:1;stroke:#000000;stroke-width:0;stroke-miterlimit:4;stroke-dasharray:none;stroke-opacity:1"
         id="path6346" />
      <path
         d="M -765.71431 -387.63782 A 91.428574 85.714287 0 1 1  -948.57146,-387.63782 A 91.428574 85.714287 0 1 1  -765.71431 -387.63782 z"
         transform="matrix(0.116265,0,0,0.124016,127.7457,20.40656)"
         style="fill:#ffffff;fill-opacity:1;stroke:#000000;stroke-width:0;stroke-miterlimit:4;stroke-dasharray:none;stroke-opacity:1"
         id="path6348" />
      <path
         d="M -765.71431 -387.63782 A 91.428574 85.714287 0 1 1  -948.57146,-387.63782 A 91.428574 85.714287 0 1 1  -765.71431 -387.63782 z"
         transform="matrix(0.116265,0,0,0.124016,127.7825,-24.59344)"
         style="fill:#ffffff;fill-opacity:1;stroke:#000000;stroke-width:0;stroke-miterlimit:4;stroke-dasharray:none;stroke-opacity:1"
         id="path6350" />
      <path
         d="M -765.71431 -387.63782 A 91.428574 85.714287 0 1 1  -948.57146,-387.63782 A 91.428574 85.714287 0 1 1  -765.71431 -387.63782 z"
         transform="matrix(0.116265,0,0,0.124016,127.7825,-80.85284)"
         style="fill:#ffffff;fill-opacity:1;stroke:#000000;stroke-width:0;stroke-miterlimit:4;stroke-dasharray:none;stroke-opacity:1"
         id="path6352" />
      <path
         d="M -765.71431 -387.63782 A 91.428574 85.714287 0 1 1  -948.57146,-387.63782 A 91.428574 85.714287 0 1 1  -765.71431 -387.63782 z"
         transform="matrix(0.116265,0,0,0.124016,127.7457,-137.1033)"
         style="fill:#ffffff;fill-opacity:1;stroke:#000000;stroke-width:0;stroke-miterlimit:4;stroke-dasharray:none;stroke-opacity:1"
         id="path6354" />
      <path
         d="M -765.71431 -387.63782 A 91.428574 85.714287 0 1 1  -948.57146,-387.63782 A 91.428574 85.714287 0 1 1  -765.71431 -387.63782 z"
         transform="matrix(0.116265,0,0,0.124016,127.7825,-182.0745)"
         style="fill:#ffffff;fill-opacity:1;stroke:#000000;stroke-width:0;stroke-miterlimit:4;stroke-dasharray:none;stroke-opacity:1"
         id="path6356" />
      <path
         d="M -765.71431 -387.63782 A 91.428574 85.714287 0 1 1  -948.57146,-387.63782 A 91.428574 85.714287 0 1 1  -765.71431 -387.63782 z"
         transform="matrix(0.116265,0,0,0.124016,127.7825,-238.3339)"
         style="fill:#ffffff;fill-opacity:1;stroke:#000000;stroke-width:0;stroke-miterlimit:4;stroke-dasharray:none;stroke-opacity:1"
         id="path6358" />
      <path
         d="M -765.71431 -387.63782 A 91.428574 85.714287 0 1 1  -948.57146,-387.63782 A 91.428574 85.714287 0 1 1  -765.71431 -387.63782 z"
         transform="matrix(0.116265,0,0,0.124016,127.7457,-294.5844)"
         style="fill:#ffffff;fill-opacity:1;stroke:#000000;stroke-width:0;stroke-miterlimit:4;stroke-dasharray:none;stroke-opacity:1"
         id="path6360" />
      <path
         d="M -765.71431 -387.63782 A 91.428574 85.714287 0 1 1  -948.57146,-387.63782 A 91.428574 85.714287 0 1 1  -765.71431 -387.63782 z"
         transform="matrix(0.116265,0,0,0.124016,127.7825,-339.5745)"
         style="fill:#ffffff;fill-opacity:1;stroke:#000000;stroke-width:0;stroke-miterlimit:4;stroke-dasharray:none;stroke-opacity:1"
         id="path6362" />
      <path
         d="M -765.71431 -387.63782 A 91.428574 85.714287 0 1 1  -948.57146,-387.63782 A 91.428574 85.714287 0 1 1  -765.71431 -387.63782 z"
         transform="matrix(0.116265,0,0,0.124016,127.7825,-395.8335)"
         style="fill:#ffffff;fill-opacity:1;stroke:#000000;stroke-width:0;stroke-miterlimit:4;stroke-dasharray:none;stroke-opacity:1"
         id="path6364" />
      <path
         d="M -765.71431 -387.63782 A 91.428574 85.714287 0 1 1  -948.57146,-387.63782 A 91.428574 85.714287 0 1 1  -765.71431 -387.63782 z"
         transform="matrix(0.116265,0,0,0.124016,127.7457,-452.0839)"
         style="fill:#ffffff;fill-opacity:1;stroke:#000000;stroke-width:0;stroke-miterlimit:4;stroke-dasharray:none;stroke-opacity:1"
         id="path6366" />
      <path
         d="M -765.71431 -387.63782 A 91.428574 85.714287 0 1 1  -948.57146,-387.63782 A 91.428574 85.714287 0 1 1  -765.71431 -387.63782 z"
         transform="matrix(0.116265,0,0,0.124016,127.7825,-497.0839)"
         style="fill:#ffffff;fill-opacity:1;stroke:#000000;stroke-width:0;stroke-miterlimit:4;stroke-dasharray:none;stroke-opacity:1"
         id="path6368" />
      <path
         d="M -765.71431 -387.63782 A 91.428574 85.714287 0 1 1  -948.57146,-387.63782 A 91.428574 85.714287 0 1 1  -765.71431 -387.63782 z"
         transform="matrix(0.116265,0,0,0.124016,127.7825,-553.3433)"
         style="fill:#ffffff;fill-opacity:1;stroke:#000000;stroke-width:0;stroke-miterlimit:4;stroke-dasharray:none;stroke-opacity:1"
         id="path6370" />
      <path
         d="M -765.71431 -387.63782 A 91.428574 85.714287 0 1 1  -948.57146,-387.63782 A 91.428574 85.714287 0 1 1  -765.71431 -387.63782 z"
         transform="matrix(0.116265,0,0,0.124016,127.7457,-609.5938)"
         style="fill:#ffffff;fill-opacity:1;stroke:#000000;stroke-width:0;stroke-miterlimit:4;stroke-dasharray:none;stroke-opacity:1"
         id="path6372" />
    </g>
    <g
       transform="translate(0,680.1378)"
       id="g6268">
      <rect
         width="56.25"
         height="1732.5"
         rx="0.99999994"
         ry="1.9999999"
         x="0"
         y="-680.13782"
         style="fill:#8f8f8f;fill-opacity:1;stroke:#000000;stroke-width:0;stroke-miterlimit:4;stroke-dasharray:none;stroke-opacity:1"
         id="rect4887" />
      <path
         d="M -765.71431 -387.63782 A 91.428574 85.714287 0 1 1  -948.57146,-387.63782 A 91.428574 85.714287 0 1 1  -765.71431 -387.63782 z"
         transform="matrix(0.116265,0,0,0.124016,127.7825,1077.935)"
         style="fill:#ffffff;fill-opacity:1;stroke:#000000;stroke-width:0;stroke-miterlimit:4;stroke-dasharray:none;stroke-opacity:1"
         id="path3135" />
      <path
         d="M -765.71431 -387.63782 A 91.428574 85.714287 0 1 1  -948.57146,-387.63782 A 91.428574 85.714287 0 1 1  -765.71431 -387.63782 z"
         transform="matrix(0.116265,0,0,0.124016,127.7825,1021.676)"
         style="fill:#ffffff;fill-opacity:1;stroke:#000000;stroke-width:0;stroke-miterlimit:4;stroke-dasharray:none;stroke-opacity:1"
         id="path5766" />
      <path
         d="M -765.71431 -387.63782 A 91.428574 85.714287 0 1 1  -948.57146,-387.63782 A 91.428574 85.714287 0 1 1  -765.71431 -387.63782 z"
         transform="matrix(0.116265,0,0,0.124016,127.7457,965.4255)"
         style="fill:#ffffff;fill-opacity:1;stroke:#000000;stroke-width:0;stroke-miterlimit:4;stroke-dasharray:none;stroke-opacity:1"
         id="path5768" />
      <path
         d="M -765.71431 -387.63782 A 91.428574 85.714287 0 1 1  -948.57146,-387.63782 A 91.428574 85.714287 0 1 1  -765.71431 -387.63782 z"
         transform="matrix(0.116265,0,0,0.124016,127.7825,920.4255)"
         style="fill:#ffffff;fill-opacity:1;stroke:#000000;stroke-width:0;stroke-miterlimit:4;stroke-dasharray:none;stroke-opacity:1"
         id="path5770" />
      <path
         d="M -765.71431 -387.63782 A 91.428574 85.714287 0 1 1  -948.57146,-387.63782 A 91.428574 85.714287 0 1 1  -765.71431 -387.63782 z"
         transform="matrix(0.116265,0,0,0.124016,127.7825,864.1661)"
         style="fill:#ffffff;fill-opacity:1;stroke:#000000;stroke-width:0;stroke-miterlimit:4;stroke-dasharray:none;stroke-opacity:1"
         id="path5772" />
      <path
         d="M -765.71431 -387.63782 A 91.428574 85.714287 0 1 1  -948.57146,-387.63782 A 91.428574 85.714287 0 1 1  -765.71431 -387.63782 z"
         transform="matrix(0.116265,0,0,0.124016,127.7457,807.9156)"
         style="fill:#ffffff;fill-opacity:1;stroke:#000000;stroke-width:0;stroke-miterlimit:4;stroke-dasharray:none;stroke-opacity:1"
         id="path5774" />
      <path
         d="M -765.71431 -387.63782 A 91.428574 85.714287 0 1 1  -948.57146,-387.63782 A 91.428574 85.714287 0 1 1  -765.71431 -387.63782 z"
         transform="matrix(0.116265,0,0,0.124016,127.7825,762.9255)"
         style="fill:#ffffff;fill-opacity:1;stroke:#000000;stroke-width:0;stroke-miterlimit:4;stroke-dasharray:none;stroke-opacity:1"
         id="path5816" />
      <path
         d="M -765.71431 -387.63782 A 91.428574 85.714287 0 1 1  -948.57146,-387.63782 A 91.428574 85.714287 0 1 1  -765.71431 -387.63782 z"
         transform="matrix(0.116265,0,0,0.124016,127.7825,706.6665)"
         style="fill:#ffffff;fill-opacity:1;stroke:#000000;stroke-width:0;stroke-miterlimit:4;stroke-dasharray:none;stroke-opacity:1"
         id="path5818" />
      <path
         d="M -765.71431 -387.63782 A 91.428574 85.714287 0 1 1  -948.57146,-387.63782 A 91.428574 85.714287 0 1 1  -765.71431 -387.63782 z"
         transform="matrix(0.116265,0,0,0.124016,127.7457,650.416)"
         style="fill:#ffffff;fill-opacity:1;stroke:#000000;stroke-width:0;stroke-miterlimit:4;stroke-dasharray:none;stroke-opacity:1"
         id="path5820" />
      <path
         d="M -765.71431 -387.63782 A 91.428574 85.714287 0 1 1  -948.57146,-387.63782 A 91.428574 85.714287 0 1 1  -765.71431 -387.63782 z"
         transform="matrix(0.116265,0,0,0.124016,127.7825,605.416)"
         style="fill:#ffffff;fill-opacity:1;stroke:#000000;stroke-width:0;stroke-miterlimit:4;stroke-dasharray:none;stroke-opacity:1"
         id="path5822" />
      <path
         d="M -765.71431 -387.63782 A 91.428574 85.714287 0 1 1  -948.57146,-387.63782 A 91.428574 85.714287 0 1 1  -765.71431 -387.63782 z"
         transform="matrix(0.116265,0,0,0.124016,127.7825,549.1566)"
         style="fill:#ffffff;fill-opacity:1;stroke:#000000;stroke-width:0;stroke-miterlimit:4;stroke-dasharray:none;stroke-opacity:1"
         id="path5824" />
      <path
         d="M -765.71431 -387.63782 A 91.428574 85.714287 0 1 1  -948.57146,-387.63782 A 91.428574 85.714287 0 1 1  -765.71431 -387.63782 z"
         transform="matrix(0.116265,0,0,0.124016,127.7457,492.9061)"
         style="fill:#ffffff;fill-opacity:1;stroke:#000000;stroke-width:0;stroke-miterlimit:4;stroke-dasharray:none;stroke-opacity:1"
         id="path5826" />
      <path
         d="M -765.71431 -387.63782 A 91.428574 85.714287 0 1 1  -948.57146,-387.63782 A 91.428574 85.714287 0 1 1  -765.71431 -387.63782 z"
         transform="matrix(0.116265,0,0,0.124016,127.7825,447.9255)"
         style="fill:#ffffff;fill-opacity:1;stroke:#000000;stroke-width:0;stroke-miterlimit:4;stroke-dasharray:none;stroke-opacity:1"
         id="path5852" />
      <path
         d="M -765.71431 -387.63782 A 91.428574 85.714287 0 1 1  -948.57146,-387.63782 A 91.428574 85.714287 0 1 1  -765.71431 -387.63782 z"
         transform="matrix(0.116265,0,0,0.124016,127.7825,391.6665)"
         style="fill:#ffffff;fill-opacity:1;stroke:#000000;stroke-width:0;stroke-miterlimit:4;stroke-dasharray:none;stroke-opacity:1"
         id="path5854" />
      <path
         d="M -765.71431 -387.63782 A 91.428574 85.714287 0 1 1  -948.57146,-387.63782 A 91.428574 85.714287 0 1 1  -765.71431 -387.63782 z"
         transform="matrix(0.116265,0,0,0.124016,127.7457,335.416)"
         style="fill:#ffffff;fill-opacity:1;stroke:#000000;stroke-width:0;stroke-miterlimit:4;stroke-dasharray:none;stroke-opacity:1"
         id="path5856" />
      <path
         d="M -765.71431 -387.63782 A 91.428574 85.714287 0 1 1  -948.57146,-387.63782 A 91.428574 85.714287 0 1 1  -765.71431 -387.63782 z"
         transform="matrix(0.116265,0,0,0.124016,127.7825,290.416)"
         style="fill:#ffffff;fill-opacity:1;stroke:#000000;stroke-width:0;stroke-miterlimit:4;stroke-dasharray:none;stroke-opacity:1"
         id="path5858" />
      <path
         d="M -765.71431 -387.63782 A 91.428574 85.714287 0 1 1  -948.57146,-387.63782 A 91.428574 85.714287 0 1 1  -765.71431 -387.63782 z"
         transform="matrix(0.116265,0,0,0.124016,127.7825,234.1566)"
         style="fill:#ffffff;fill-opacity:1;stroke:#000000;stroke-width:0;stroke-miterlimit:4;stroke-dasharray:none;stroke-opacity:1"
         id="path5860" />
      <path
         d="M -765.71431 -387.63782 A 91.428574 85.714287 0 1 1  -948.57146,-387.63782 A 91.428574 85.714287 0 1 1  -765.71431 -387.63782 z"
         transform="matrix(0.116265,0,0,0.124016,127.7457,177.9061)"
         style="fill:#ffffff;fill-opacity:1;stroke:#000000;stroke-width:0;stroke-miterlimit:4;stroke-dasharray:none;stroke-opacity:1"
         id="path5862" />
      <path
         d="M -765.71431 -387.63782 A 91.428574 85.714287 0 1 1  -948.57146,-387.63782 A 91.428574 85.714287 0 1 1  -765.71431 -387.63782 z"
         transform="matrix(0.116265,0,0,0.124016,127.7825,132.916)"
         style="fill:#ffffff;fill-opacity:1;stroke:#000000;stroke-width:0;stroke-miterlimit:4;stroke-dasharray:none;stroke-opacity:1"
         id="path5864" />
      <path
         d="M -765.71431 -387.63782 A 91.428574 85.714287 0 1 1  -948.57146,-387.63782 A 91.428574 85.714287 0 1 1  -765.71431 -387.63782 z"
         transform="matrix(0.116265,0,0,0.124016,127.7825,76.65703)"
         style="fill:#ffffff;fill-opacity:1;stroke:#000000;stroke-width:0;stroke-miterlimit:4;stroke-dasharray:none;stroke-opacity:1"
         id="path5866" />
      <path
         d="M -765.71431 -387.63782 A 91.428574 85.714287 0 1 1  -948.57146,-387.63782 A 91.428574 85.714287 0 1 1  -765.71431 -387.63782 z"
         transform="matrix(0.116265,0,0,0.124016,127.7457,20.40656)"
         style="fill:#ffffff;fill-opacity:1;stroke:#000000;stroke-width:0;stroke-miterlimit:4;stroke-dasharray:none;stroke-opacity:1"
         id="path5868" />
      <path
         d="M -765.71431 -387.63782 A 91.428574 85.714287 0 1 1  -948.57146,-387.63782 A 91.428574 85.714287 0 1 1  -765.71431 -387.63782 z"
         transform="matrix(0.116265,0,0,0.124016,127.7825,-24.59344)"
         style="fill:#ffffff;fill-opacity:1;stroke:#000000;stroke-width:0;stroke-miterlimit:4;stroke-dasharray:none;stroke-opacity:1"
         id="path5870" />
      <path
         d="M -765.71431 -387.63782 A 91.428574 85.714287 0 1 1  -948.57146,-387.63782 A 91.428574 85.714287 0 1 1  -765.71431 -387.63782 z"
         transform="matrix(0.116265,0,0,0.124016,127.7825,-80.85284)"
         style="fill:#ffffff;fill-opacity:1;stroke:#000000;stroke-width:0;stroke-miterlimit:4;stroke-dasharray:none;stroke-opacity:1"
         id="path5872" />
      <path
         d="M -765.71431 -387.63782 A 91.428574 85.714287 0 1 1  -948.57146,-387.63782 A 91.428574 85.714287 0 1 1  -765.71431 -387.63782 z"
         transform="matrix(0.116265,0,0,0.124016,127.7457,-137.1033)"
         style="fill:#ffffff;fill-opacity:1;stroke:#000000;stroke-width:0;stroke-miterlimit:4;stroke-dasharray:none;stroke-opacity:1"
         id="path5874" />
      <path
         d="M -765.71431 -387.63782 A 91.428574 85.714287 0 1 1  -948.57146,-387.63782 A 91.428574 85.714287 0 1 1  -765.71431 -387.63782 z"
         transform="matrix(0.116265,0,0,0.124016,127.7825,-182.0745)"
         style="fill:#ffffff;fill-opacity:1;stroke:#000000;stroke-width:0;stroke-miterlimit:4;stroke-dasharray:none;stroke-opacity:1"
         id="path6241" />
      <path
         d="M -765.71431 -387.63782 A 91.428574 85.714287 0 1 1  -948.57146,-387.63782 A 91.428574 85.714287 0 1 1  -765.71431 -387.63782 z"
         transform="matrix(0.116265,0,0,0.124016,127.7825,-238.3339)"
         style="fill:#ffffff;fill-opacity:1;stroke:#000000;stroke-width:0;stroke-miterlimit:4;stroke-dasharray:none;stroke-opacity:1"
         id="path6243" />
      <path
         d="M -765.71431 -387.63782 A 91.428574 85.714287 0 1 1  -948.57146,-387.63782 A 91.428574 85.714287 0 1 1  -765.71431 -387.63782 z"
         transform="matrix(0.116265,0,0,0.124016,127.7457,-294.5844)"
         style="fill:#ffffff;fill-opacity:1;stroke:#000000;stroke-width:0;stroke-miterlimit:4;stroke-dasharray:none;stroke-opacity:1"
         id="path6245" />
      <path
         d="M -765.71431 -387.63782 A 91.428574 85.714287 0 1 1  -948.57146,-387.63782 A 91.428574 85.714287 0 1 1  -765.71431 -387.63782 z"
         transform="matrix(0.116265,0,0,0.124016,127.7825,-339.5745)"
         style="fill:#ffffff;fill-opacity:1;stroke:#000000;stroke-width:0;stroke-miterlimit:4;stroke-dasharray:none;stroke-opacity:1"
         id="path6247" />
      <path
         d="M -765.71431 -387.63782 A 91.428574 85.714287 0 1 1  -948.57146,-387.63782 A 91.428574 85.714287 0 1 1  -765.71431 -387.63782 z"
         transform="matrix(0.116265,0,0,0.124016,127.7825,-395.8335)"
         style="fill:#ffffff;fill-opacity:1;stroke:#000000;stroke-width:0;stroke-miterlimit:4;stroke-dasharray:none;stroke-opacity:1"
         id="path6249" />
      <path
         d="M -765.71431 -387.63782 A 91.428574 85.714287 0 1 1  -948.57146,-387.63782 A 91.428574 85.714287 0 1 1  -765.71431 -387.63782 z"
         transform="matrix(0.116265,0,0,0.124016,127.7457,-452.0839)"
         style="fill:#ffffff;fill-opacity:1;stroke:#000000;stroke-width:0;stroke-miterlimit:4;stroke-dasharray:none;stroke-opacity:1"
         id="path6251" />
      <path
         d="M -765.71431 -387.63782 A 91.428574 85.714287 0 1 1  -948.57146,-387.63782 A 91.428574 85.714287 0 1 1  -765.71431 -387.63782 z"
         transform="matrix(0.116265,0,0,0.124016,127.7825,-497.0839)"
         style="fill:#ffffff;fill-opacity:1;stroke:#000000;stroke-width:0;stroke-miterlimit:4;stroke-dasharray:none;stroke-opacity:1"
         id="path6253" />
      <path
         d="M -765.71431 -387.63782 A 91.428574 85.714287 0 1 1  -948.57146,-387.63782 A 91.428574 85.714287 0 1 1  -765.71431 -387.63782 z"
         transform="matrix(0.116265,0,0,0.124016,127.7825,-553.3433)"
         style="fill:#ffffff;fill-opacity:1;stroke:#000000;stroke-width:0;stroke-miterlimit:4;stroke-dasharray:none;stroke-opacity:1"
         id="path6255" />
      <path
         d="M -765.71431 -387.63782 A 91.428574 85.714287 0 1 1  -948.57146,-387.63782 A 91.428574 85.714287 0 1 1  -765.71431 -387.63782 z"
         transform="matrix(0.116265,0,0,0.124016,127.7457,-609.5938)"
         style="fill:#ffffff;fill-opacity:1;stroke:#000000;stroke-width:0;stroke-miterlimit:4;stroke-dasharray:none;stroke-opacity:1"
         id="path6257" />
    </g>
    <g
       transform="translate(0,522.6378)"
       id="g6038">
      <rect
         width="1710"
         height="157.5"
         rx="1"
         ry="1.9999999"
         x="0"
         y="894.86218"
         style="opacity:1;fill:#000000;fill-opacity:1;stroke:#000000;stroke-width:0;stroke-miterlimit:4;stroke-dasharray:none;stroke-opacity:1"
         id="rect5762" />
      <path
         d="M -765.71431 -387.63782 A 91.428574 85.714287 0 1 1  -948.57146,-387.63782 A 91.428574 85.714287 0 1 1  -765.71431 -387.63782 z"
         transform="matrix(0.116265,0,0,0.124016,127.8193,1077.935)"
         style="fill:#ffffff;fill-opacity:1;stroke:#000000;stroke-width:0;stroke-miterlimit:4;stroke-dasharray:none;stroke-opacity:1"
         id="path5959" />
      <path
         d="M -765.71431 -387.63782 A 91.428574 85.714287 0 1 1  -948.57146,-387.63782 A 91.428574 85.714287 0 1 1  -765.71431 -387.63782 z"
         transform="matrix(0.116265,0,0,0.124016,127.8193,1021.676)"
         style="fill:#ffffff;fill-opacity:1;stroke:#000000;stroke-width:0;stroke-miterlimit:4;stroke-dasharray:none;stroke-opacity:1"
         id="path5961" />
      <path
         d="M -765.71431 -387.63782 A 91.428574 85.714287 0 1 1  -948.57146,-387.63782 A 91.428574 85.714287 0 1 1  -765.71431 -387.63782 z"
         transform="matrix(0.116265,0,0,0.124016,127.7825,965.4264)"
         style="fill:#ffffff;fill-opacity:1;stroke:#000000;stroke-width:0;stroke-miterlimit:4;stroke-dasharray:none;stroke-opacity:1"
         id="path5963" />
      <path
         d="M -765.71431 -387.63782 A 91.428574 85.714287 0 1 1  -948.57146,-387.63782 A 91.428574 85.714287 0 1 1  -765.71431 -387.63782 z"
         transform="matrix(0.116265,0,0,0.124016,1781.569,1077.935)"
         style="fill:#ffffff;fill-opacity:1;stroke:#000000;stroke-width:0;stroke-miterlimit:4;stroke-dasharray:none;stroke-opacity:1"
         id="path6032" />
      <path
         d="M -765.71431 -387.63782 A 91.428574 85.714287 0 1 1  -948.57146,-387.63782 A 91.428574 85.714287 0 1 1  -765.71431 -387.63782 z"
         transform="matrix(0.116265,0,0,0.124016,1781.569,1021.676)"
         style="fill:#ffffff;fill-opacity:1;stroke:#000000;stroke-width:0;stroke-miterlimit:4;stroke-dasharray:none;stroke-opacity:1"
         id="path6034" />
      <path
         d="M -765.71431 -387.63782 A 91.428574 85.714287 0 1 1  -948.57146,-387.63782 A 91.428574 85.714287 0 1 1  -765.71431 -387.63782 z"
         transform="matrix(0.116265,0,0,0.124016,1781.533,965.4268)"
         style="fill:#ffffff;fill-opacity:1;stroke:#000000;stroke-width:0;stroke-miterlimit:4;stroke-dasharray:none;stroke-opacity:1"
         id="path6036" />
    </g>
    <g
       transform="translate(0,522.6378)"
       id="g6093">
      <rect
         width="1710"
         height="315"
         rx="1"
         ry="1.9999999"
         x="0"
         y="422.36218"
         style="fill:#000000;fill-opacity:1;stroke:#000000;stroke-width:0;stroke-miterlimit:4;stroke-dasharray:none;stroke-opacity:1"
         id="rect6065" />
      <path
         d="M -765.71431 -387.63782 A 91.428574 85.714287 0 1 1  -948.57146,-387.63782 A 91.428574 85.714287 0 1 1  -765.71431 -387.63782 z"
         transform="matrix(0.116265,0,0,0.124016,127.8193,605.435)"
         style="fill:#ffffff;fill-opacity:1;stroke:#000000;stroke-width:0;stroke-miterlimit:4;stroke-dasharray:none;stroke-opacity:1"
         id="path6051" />
      <path
         d="M -765.71431 -387.63782 A 91.428574 85.714287 0 1 1  -948.57146,-387.63782 A 91.428574 85.714287 0 1 1  -765.71431 -387.63782 z"
         transform="matrix(0.116265,0,0,0.124016,127.8193,549.176)"
         style="fill:#ffffff;fill-opacity:1;stroke:#000000;stroke-width:0;stroke-miterlimit:4;stroke-dasharray:none;stroke-opacity:1"
         id="path6053" />
      <path
         d="M -765.71431 -387.63782 A 91.428574 85.714287 0 1 1  -948.57146,-387.63782 A 91.428574 85.714287 0 1 1  -765.71431 -387.63782 z"
         transform="matrix(0.116265,0,0,0.124016,127.7825,492.9264)"
         style="fill:#ffffff;fill-opacity:1;stroke:#000000;stroke-width:0;stroke-miterlimit:4;stroke-dasharray:none;stroke-opacity:1"
         id="path6055" />
      <path
         d="M -765.71431 -387.63782 A 91.428574 85.714287 0 1 1  -948.57146,-387.63782 A 91.428574 85.714287 0 1 1  -765.71431 -387.63782 z"
         transform="matrix(0.116265,0,0,0.124016,1781.569,605.435)"
         style="fill:#ffffff;fill-opacity:1;stroke:#000000;stroke-width:0;stroke-miterlimit:4;stroke-dasharray:none;stroke-opacity:1"
         id="path6057" />
      <path
         d="M -765.71431 -387.63782 A 91.428574 85.714287 0 1 1  -948.57146,-387.63782 A 91.428574 85.714287 0 1 1  -765.71431 -387.63782 z"
         transform="matrix(0.116265,0,0,0.124016,1781.569,549.176)"
         style="fill:#ffffff;fill-opacity:1;stroke:#000000;stroke-width:0;stroke-miterlimit:4;stroke-dasharray:none;stroke-opacity:1"
         id="path6059" />
      <path
         d="M -765.71431 -387.63782 A 91.428574 85.714287 0 1 1  -948.57146,-387.63782 A 91.428574 85.714287 0 1 1  -765.71431 -387.63782 z"
         transform="matrix(0.116265,0,0,0.124016,1781.533,492.9268)"
         style="fill:#ffffff;fill-opacity:1;stroke:#000000;stroke-width:0;stroke-miterlimit:4;stroke-dasharray:none;stroke-opacity:1"
         id="path6061" />
      <path
         d="M -765.71431 -387.63782 A 91.428574 85.714287 0 1 1  -948.57146,-387.63782 A 91.428574 85.714287 0 1 1  -765.71431 -387.63782 z"
         transform="matrix(0.116265,0,0,0.124016,127.8193,762.935)"
         style="fill:#ffffff;fill-opacity:1;stroke:#000000;stroke-width:0;stroke-miterlimit:4;stroke-dasharray:none;stroke-opacity:1"
         id="path6067" />
      <path
         d="M -765.71431 -387.63782 A 91.428574 85.714287 0 1 1  -948.57146,-387.63782 A 91.428574 85.714287 0 1 1  -765.71431 -387.63782 z"
         transform="matrix(0.116265,0,0,0.124016,127.8193,706.676)"
         style="fill:#ffffff;fill-opacity:1;stroke:#000000;stroke-width:0;stroke-miterlimit:4;stroke-dasharray:none;stroke-opacity:1"
         id="path6069" />
      <path
         d="M -765.71431 -387.63782 A 91.428574 85.714287 0 1 1  -948.57146,-387.63782 A 91.428574 85.714287 0 1 1  -765.71431 -387.63782 z"
         transform="matrix(0.116265,0,0,0.124016,127.7825,650.4264)"
         style="fill:#ffffff;fill-opacity:1;stroke:#000000;stroke-width:0;stroke-miterlimit:4;stroke-dasharray:none;stroke-opacity:1"
         id="path6071" />
      <path
         d="M -765.71431 -387.63782 A 91.428574 85.714287 0 1 1  -948.57146,-387.63782 A 91.428574 85.714287 0 1 1  -765.71431 -387.63782 z"
         transform="matrix(0.116265,0,0,0.124016,1781.569,762.935)"
         style="fill:#ffffff;fill-opacity:1;stroke:#000000;stroke-width:0;stroke-miterlimit:4;stroke-dasharray:none;stroke-opacity:1"
         id="path6073" />
      <path
         d="M -765.71431 -387.63782 A 91.428574 85.714287 0 1 1  -948.57146,-387.63782 A 91.428574 85.714287 0 1 1  -765.71431 -387.63782 z"
         transform="matrix(0.116265,0,0,0.124016,1781.569,706.676)"
         style="fill:#ffffff;fill-opacity:1;stroke:#000000;stroke-width:0;stroke-miterlimit:4;stroke-dasharray:none;stroke-opacity:1"
         id="path6075" />
      <path
         d="M -765.71431 -387.63782 A 91.428574 85.714287 0 1 1  -948.57146,-387.63782 A 91.428574 85.714287 0 1 1  -765.71431 -387.63782 z"
         transform="matrix(0.116265,0,0,0.124016,1781.533,650.4268)"
         style="fill:#ffffff;fill-opacity:1;stroke:#000000;stroke-width:0;stroke-miterlimit:4;stroke-dasharray:none;stroke-opacity:1"
         id="path6077" />
    </g>
    <g
       id="g6411">
      <rect
         width="855"
         height="630"
         rx="1"
         ry="1.9999999"
         x="855"
         y="157.49998"
         style="fill:#000000;fill-opacity:1;stroke:#000000;stroke-width:0;stroke-miterlimit:4;stroke-dasharray:none;stroke-opacity:1"
         id="rect6110" />
      <path
         d="M -765.71431 -387.63782 A 91.428574 85.714287 0 1 1  -948.57146,-387.63782 A 91.428574 85.714287 0 1 1  -765.71431 -387.63782 z"
         transform="matrix(0.116265,0,0,0.124016,1781.533,340.5633)"
         style="fill:#ffffff;fill-opacity:1;stroke:#000000;stroke-width:0;stroke-miterlimit:4;stroke-dasharray:none;stroke-opacity:1"
         id="path6112" />
      <path
         d="M -765.71431 -387.63782 A 91.428574 85.714287 0 1 1  -948.57146,-387.63782 A 91.428574 85.714287 0 1 1  -765.71431 -387.63782 z"
         transform="matrix(0.116265,0,0,0.124016,1781.533,284.3043)"
         style="fill:#ffffff;fill-opacity:1;stroke:#000000;stroke-width:0;stroke-miterlimit:4;stroke-dasharray:none;stroke-opacity:1"
         id="path6114" />
      <path
         d="M -765.71431 -387.63782 A 91.428574 85.714287 0 1 1  -948.57146,-387.63782 A 91.428574 85.714287 0 1 1  -765.71431 -387.63782 z"
         transform="matrix(0.116265,0,0,0.124016,1781.496,228.0547)"
         style="fill:#ffffff;fill-opacity:1;stroke:#000000;stroke-width:0;stroke-miterlimit:4;stroke-dasharray:none;stroke-opacity:1"
         id="path6116" />
      <path
         d="M -765.71431 -387.63782 A 91.428574 85.714287 0 1 1  -948.57146,-387.63782 A 91.428574 85.714287 0 1 1  -765.71431 -387.63782 z"
         transform="matrix(0.116265,0,0,0.124016,1781.569,655.5728)"
         style="fill:#ffffff;fill-opacity:1;stroke:#000000;stroke-width:0;stroke-miterlimit:4;stroke-dasharray:none;stroke-opacity:1"
         id="path6118" />
      <path
         d="M -765.71431 -387.63782 A 91.428574 85.714287 0 1 1  -948.57146,-387.63782 A 91.428574 85.714287 0 1 1  -765.71431 -387.63782 z"
         transform="matrix(0.116265,0,0,0.124016,1781.569,599.3138)"
         style="fill:#ffffff;fill-opacity:1;stroke:#000000;stroke-width:0;stroke-miterlimit:4;stroke-dasharray:none;stroke-opacity:1"
         id="path6120" />
      <path
         d="M -765.71431 -387.63782 A 91.428574 85.714287 0 1 1  -948.57146,-387.63782 A 91.428574 85.714287 0 1 1  -765.71431 -387.63782 z"
         transform="matrix(0.116265,0,0,0.124016,1781.533,543.0646)"
         style="fill:#ffffff;fill-opacity:1;stroke:#000000;stroke-width:0;stroke-miterlimit:4;stroke-dasharray:none;stroke-opacity:1"
         id="path6122" />
      <path
         d="M -765.71431 -387.63782 A 91.428574 85.714287 0 1 1  -948.57146,-387.63782 A 91.428574 85.714287 0 1 1  -765.71431 -387.63782 z"
         transform="matrix(0.116265,0,0,0.124016,1781.533,498.0633)"
         style="fill:#ffffff;fill-opacity:1;stroke:#000000;stroke-width:0;stroke-miterlimit:4;stroke-dasharray:none;stroke-opacity:1"
         id="path6124" />
      <path
         d="M -765.71431 -387.63782 A 91.428574 85.714287 0 1 1  -948.57146,-387.63782 A 91.428574 85.714287 0 1 1  -765.71431 -387.63782 z"
         transform="matrix(0.116265,0,0,0.124016,1781.533,441.8043)"
         style="fill:#ffffff;fill-opacity:1;stroke:#000000;stroke-width:0;stroke-miterlimit:4;stroke-dasharray:none;stroke-opacity:1"
         id="path6126" />
      <path
         d="M -765.71431 -387.63782 A 91.428574 85.714287 0 1 1  -948.57146,-387.63782 A 91.428574 85.714287 0 1 1  -765.71431 -387.63782 z"
         transform="matrix(0.116265,0,0,0.124016,1781.496,385.5547)"
         style="fill:#ffffff;fill-opacity:1;stroke:#000000;stroke-width:0;stroke-miterlimit:4;stroke-dasharray:none;stroke-opacity:1"
         id="path6128" />
      <path
         d="M -765.71431 -387.63782 A 91.428574 85.714287 0 1 1  -948.57146,-387.63782 A 91.428574 85.714287 0 1 1  -765.71431 -387.63782 z"
         transform="matrix(0.116265,0,0,0.124016,1781.569,813.0728)"
         style="fill:#ffffff;fill-opacity:1;stroke:#000000;stroke-width:0;stroke-miterlimit:4;stroke-dasharray:none;stroke-opacity:1"
         id="path6130" />
      <path
         d="M -765.71431 -387.63782 A 91.428574 85.714287 0 1 1  -948.57146,-387.63782 A 91.428574 85.714287 0 1 1  -765.71431 -387.63782 z"
         transform="matrix(0.116265,0,0,0.124016,1781.569,756.8138)"
         style="fill:#ffffff;fill-opacity:1;stroke:#000000;stroke-width:0;stroke-miterlimit:4;stroke-dasharray:none;stroke-opacity:1"
         id="path6132" />
      <path
         d="M -765.71431 -387.63782 A 91.428574 85.714287 0 1 1  -948.57146,-387.63782 A 91.428574 85.714287 0 1 1  -765.71431 -387.63782 z"
         transform="matrix(0.116265,0,0,0.124016,1781.533,700.5646)"
         style="fill:#ffffff;fill-opacity:1;stroke:#000000;stroke-width:0;stroke-miterlimit:4;stroke-dasharray:none;stroke-opacity:1"
         id="path6134" />
      <path
         d="M -765.71431 -387.63782 A 91.428574 85.714287 0 1 1  -948.57146,-387.63782 A 91.428574 85.714287 0 1 1  -765.71431 -387.63782 z"
         transform="matrix(0.116265,0,0,0.124016,982.8195,340.5538)"
         style="fill:#ffffff;fill-opacity:1;stroke:#000000;stroke-width:0;stroke-miterlimit:4;stroke-dasharray:none;stroke-opacity:1"
         id="path6387" />
      <path
         d="M -765.71431 -387.63782 A 91.428574 85.714287 0 1 1  -948.57146,-387.63782 A 91.428574 85.714287 0 1 1  -765.71431 -387.63782 z"
         transform="matrix(0.116265,0,0,0.124016,982.8195,284.2948)"
         style="fill:#ffffff;fill-opacity:1;stroke:#000000;stroke-width:0;stroke-miterlimit:4;stroke-dasharray:none;stroke-opacity:1"
         id="path6389" />
      <path
         d="M -765.71431 -387.63782 A 91.428574 85.714287 0 1 1  -948.57146,-387.63782 A 91.428574 85.714287 0 1 1  -765.71431 -387.63782 z"
         transform="matrix(0.116265,0,0,0.124016,982.7825,228.0452)"
         style="fill:#ffffff;fill-opacity:1;stroke:#000000;stroke-width:0;stroke-miterlimit:4;stroke-dasharray:none;stroke-opacity:1"
         id="path6391" />
      <path
         d="M -765.71431 -387.63782 A 91.428574 85.714287 0 1 1  -948.57146,-387.63782 A 91.428574 85.714287 0 1 1  -765.71431 -387.63782 z"
         transform="matrix(0.116265,0,0,0.124016,982.8555,655.5633)"
         style="fill:#ffffff;fill-opacity:1;stroke:#000000;stroke-width:0;stroke-miterlimit:4;stroke-dasharray:none;stroke-opacity:1"
         id="path6393" />
      <path
         d="M -765.71431 -387.63782 A 91.428574 85.714287 0 1 1  -948.57146,-387.63782 A 91.428574 85.714287 0 1 1  -765.71431 -387.63782 z"
         transform="matrix(0.116265,0,0,0.124016,982.8555,599.3043)"
         style="fill:#ffffff;fill-opacity:1;stroke:#000000;stroke-width:0;stroke-miterlimit:4;stroke-dasharray:none;stroke-opacity:1"
         id="path6395" />
      <path
         d="M -765.71431 -387.63782 A 91.428574 85.714287 0 1 1  -948.57146,-387.63782 A 91.428574 85.714287 0 1 1  -765.71431 -387.63782 z"
         transform="matrix(0.116265,0,0,0.124016,982.8195,543.0551)"
         style="fill:#ffffff;fill-opacity:1;stroke:#000000;stroke-width:0;stroke-miterlimit:4;stroke-dasharray:none;stroke-opacity:1"
         id="path6397" />
      <path
         d="M -765.71431 -387.63782 A 91.428574 85.714287 0 1 1  -948.57146,-387.63782 A 91.428574 85.714287 0 1 1  -765.71431 -387.63782 z"
         transform="matrix(0.116265,0,0,0.124016,982.8195,498.0538)"
         style="fill:#ffffff;fill-opacity:1;stroke:#000000;stroke-width:0;stroke-miterlimit:4;stroke-dasharray:none;stroke-opacity:1"
         id="path6399" />
      <path
         d="M -765.71431 -387.63782 A 91.428574 85.714287 0 1 1  -948.57146,-387.63782 A 91.428574 85.714287 0 1 1  -765.71431 -387.63782 z"
         transform="matrix(0.116265,0,0,0.124016,982.8195,441.7948)"
         style="fill:#ffffff;fill-opacity:1;stroke:#000000;stroke-width:0;stroke-miterlimit:4;stroke-dasharray:none;stroke-opacity:1"
         id="path6401" />
      <path
         d="M -765.71431 -387.63782 A 91.428574 85.714287 0 1 1  -948.57146,-387.63782 A 91.428574 85.714287 0 1 1  -765.71431 -387.63782 z"
         transform="matrix(0.116265,0,0,0.124016,982.7825,385.5452)"
         style="fill:#ffffff;fill-opacity:1;stroke:#000000;stroke-width:0;stroke-miterlimit:4;stroke-dasharray:none;stroke-opacity:1"
         id="path6403" />
      <path
         d="M -765.71431 -387.63782 A 91.428574 85.714287 0 1 1  -948.57146,-387.63782 A 91.428574 85.714287 0 1 1  -765.71431 -387.63782 z"
         transform="matrix(0.116265,0,0,0.124016,982.8555,813.0633)"
         style="fill:#ffffff;fill-opacity:1;stroke:#000000;stroke-width:0;stroke-miterlimit:4;stroke-dasharray:none;stroke-opacity:1"
         id="path6405" />
      <path
         d="M -765.71431 -387.63782 A 91.428574 85.714287 0 1 1  -948.57146,-387.63782 A 91.428574 85.714287 0 1 1  -765.71431 -387.63782 z"
         transform="matrix(0.116265,0,0,0.124016,982.8555,756.8043)"
         style="fill:#ffffff;fill-opacity:1;stroke:#000000;stroke-width:0;stroke-miterlimit:4;stroke-dasharray:none;stroke-opacity:1"
         id="path6407" />
      <path
         d="M -765.71431 -387.63782 A 91.428574 85.714287 0 1 1  -948.57146,-387.63782 A 91.428574 85.714287 0 1 1  -765.71431 -387.63782 z"
         transform="matrix(0.116265,0,0,0.124016,982.8195,700.5551)"
         style="fill:#ffffff;fill-opacity:1;stroke:#000000;stroke-width:0;stroke-miterlimit:4;stroke-dasharray:none;stroke-opacity:1"
         id="path6409" />
    </g>
    <text
       x="1006.5509"
       y="1234.9613"
       transform="scale(0.796346,1.255736)"
       style="font-size:96.44055176px;font-style:normal;font-weight:normal;fill:#ffffff;fill-opacity:1;stroke:none;stroke-width:1px;stroke-linecap:butt;stroke-linejoin:miter;stroke-opacity:1;font-family:Bitstream Vera Sans"
       id="text6438"
       xml:space="preserve"><tspan
         x="1006.5509"
         y="1234.9613"
         id="tspan6440">1U</tspan></text>
    <text
       x="1016.9801"
       y="870.86816"
       transform="scale(0.791112,1.264043)"
       style="font-size:94.1366806px;font-style:normal;font-weight:normal;fill:#ffffff;fill-opacity:1;stroke:none;stroke-width:1px;stroke-linecap:butt;stroke-linejoin:miter;stroke-opacity:1;font-family:Bitstream Vera Sans"
       id="text7319"
       xml:space="preserve"><tspan
         x="1016.9801"
         y="870.86816"
         id="tspan7321">2U</tspan></text>
    <text
       x="1589.3353"
       y="365.51013"
       transform="scale(0.776384,1.288022)"
       style="font-size:94.02296448px;font-style:normal;font-weight:normal;fill:#ffffff;fill-opacity:1;stroke:none;stroke-width:1px;stroke-linecap:butt;stroke-linejoin:miter;stroke-opacity:1;font-family:Bitstream Vera Sans"
       id="text8196"
       xml:space="preserve"><tspan
         x="1589.3353"
         y="365.51013"
         id="tspan8198">4U</tspan></text>
    <text
       x="1282.0339"
       y="555.79681"
       transform="scale(0.853954,1.171023)"
       style="font-size:99.30633545px;font-style:normal;font-weight:normal;fill:#ffffff;fill-opacity:1;stroke:none;stroke-width:1px;stroke-linecap:butt;stroke-linejoin:miter;stroke-opacity:1;font-family:Bitstream Vera Sans"
       id="text9073"
       xml:space="preserve"><tspan
         x="1282.0339"
         y="555.79681"
         id="tspan9077">half-rack</tspan></text>
  </g>
</svg>
